<svg version="1.1" id="Layer_1" xmlns="http://www.w3.org/2000/svg" xmlns:xlink="http://www.w3.org/1999/xlink" x="0px" y="0px"
	 width="100%" viewBox="0 0 980 621" enable-background="new 0 0 980 621" xml:space="preserve">
<path fill="#FFFFFF" opacity="1.000000" stroke="none" 
	d="
M625.000000,622.000000 
	C416.666656,622.000000 208.833328,622.000000 1.000000,622.000000 
	C1.000000,415.000000 1.000000,208.000000 1.000000,1.000000 
	C327.666656,1.000000 654.333313,1.000000 981.000000,1.000000 
	C981.000000,208.000000 981.000000,415.000000 981.000000,622.000000 
	C862.500000,622.000000 744.000000,622.000000 625.000000,622.000000 
M54.019829,142.863281 
	C54.013107,252.930710 54.005997,362.998138 54.005726,473.065552 
	C54.005722,474.061737 54.097286,475.057892 54.010445,476.979095 
	C54.010445,507.905670 54.010445,538.832214 54.010445,569.855469 
	C86.346497,569.855469 118.144104,569.855469 150.863174,569.980164 
	C378.596863,569.986877 606.330505,569.993713 834.064209,569.994141 
	C835.060852,569.994141 836.057495,569.902710 837.979065,569.989563 
	C869.905640,569.989563 901.832153,569.989563 933.855469,569.989563 
	C933.855469,536.653503 933.855469,503.855896 933.980164,470.136871 
	C933.986877,363.402618 933.993896,256.668396 933.994080,149.934143 
	C933.994080,148.937988 933.902710,147.941833 933.989563,146.020737 
	C933.989563,113.427620 933.989563,80.834496 933.989563,48.144554 
	C900.320190,48.144554 867.189270,48.144554 833.136902,48.019810 
	C607.403137,48.013096 381.669434,48.006187 155.935684,48.005692 
	C154.939056,48.005692 153.942413,48.097244 152.020813,48.010441 
	C119.427795,48.010441 86.834778,48.010441 54.144638,48.010441 
	C54.144638,79.679573 54.144638,110.810730 54.019829,142.863281 
z"/>
<path fill="#783AA7" opacity="1.000000" stroke="none" 
	d="
M54.146099,476.054077 
	C54.097286,475.057892 54.005722,474.061737 54.005726,473.065552 
	C54.005997,362.998138 54.013107,252.930710 54.412674,142.175720 
	C55.840599,136.038788 56.487556,130.480499 57.980679,125.159660 
	C63.300014,106.203903 73.300537,90.086235 87.776878,76.660980 
	C100.655762,64.717194 115.397865,56.252937 132.444962,52.045509 
	C139.188583,50.381104 146.106979,49.424774 152.945786,48.146042 
	C153.942413,48.097244 154.939056,48.005692 155.935684,48.005692 
	C381.669434,48.006187 607.403137,48.013096 833.840454,48.416519 
	C844.581909,50.846851 854.959167,51.876400 864.585144,55.129169 
	C882.982849,61.346016 898.272705,72.537537 910.385559,87.875885 
	C918.883728,98.636940 925.590759,110.362328 928.983093,123.717453 
	C930.928955,131.378326 932.251038,139.197678 933.854004,146.945679 
	C933.902710,147.941833 933.994080,148.937988 933.994080,149.934143 
	C933.993896,256.668396 933.986877,363.402618 933.584290,470.836853 
	C932.817871,486.953888 928.058350,501.151642 920.757874,514.516235 
	C908.158142,537.581787 889.692566,554.195557 864.805237,562.942322 
	C855.851196,566.089294 846.321228,567.597717 837.054138,569.853943 
	C836.057495,569.902710 835.060852,569.994141 834.064209,569.994141 
	C606.330505,569.993713 378.596863,569.986877 150.168335,569.585449 
	C142.435577,567.833557 135.239120,567.018372 128.390274,565.014893 
	C109.909409,559.608459 94.490089,549.294739 81.451500,535.078491 
	C72.091202,524.872803 65.010696,513.351135 60.384300,500.471649 
	C57.557129,492.601074 56.176441,484.210876 54.146099,476.054077 
M783.725159,338.894043 
	C801.484192,321.116241 819.270813,303.365692 836.932251,285.491516 
	C837.971985,284.439331 838.692383,282.245056 838.392639,280.829742 
	C836.432068,271.572144 834.256531,262.354553 831.848267,253.203583 
	C831.512695,251.928452 829.603394,250.322311 828.271118,250.166840 
	C809.290039,247.951782 790.264343,246.110901 771.300537,243.766052 
	C768.157288,243.377426 764.579651,241.698105 762.355774,239.466309 
	C749.084656,226.148071 736.416138,212.223480 723.001343,199.056717 
	C715.571411,191.764130 707.082947,185.549957 698.636475,178.307510 
	C696.134277,180.133560 693.676392,182.024277 691.121887,183.773987 
	C682.107422,189.948502 679.374878,198.141846 682.487061,208.635742 
	C682.941101,210.166718 681.796326,213.061798 680.449402,214.081940 
	C674.789062,218.368958 670.832397,224.066483 663.529480,227.346161 
	C655.738525,230.845032 650.536194,240.107910 644.030334,247.039276 
	C656.050720,262.981598 668.371033,279.310669 680.679504,295.648712 
	C696.395203,316.509491 712.064880,337.405365 727.895020,358.178925 
	C728.935608,359.544434 731.656433,361.167816 732.778625,360.702148 
	C749.631897,353.708435 766.347839,346.383759 783.725159,338.894043 
M516.500000,361.111298 
	C528.496765,361.111298 540.495300,360.998566 552.489075,361.187195 
	C555.652466,361.236938 557.156311,360.247620 558.299866,357.271240 
	C561.121216,349.927948 564.368835,342.748444 567.759216,334.763306 
	C569.914429,338.056732 571.452209,340.578033 573.156067,342.981537 
	C581.654358,354.969147 592.265808,361.910278 607.982178,361.337738 
	C631.777405,360.470825 655.627441,361.111298 679.454224,361.111298 
	C681.167969,361.111298 682.881714,361.111298 685.481934,361.111298 
	C672.401611,343.270142 660.060120,326.337799 647.518372,309.555115 
	C646.693237,308.451050 644.342163,308.078522 642.694397,308.063049 
	C630.032349,307.944000 617.330688,307.406372 604.719543,308.216309 
	C596.985962,308.712982 593.577881,304.359497 589.111755,298.783447 
	C602.905518,298.783447 615.804932,298.783447 629.173218,298.783447 
	C628.748535,297.688385 628.613770,297.065704 628.294800,296.558868 
	C620.492004,284.160614 612.743469,271.726532 604.742432,259.457184 
	C603.894897,258.157532 601.551636,257.180786 599.891357,257.164398 
	C583.064270,256.998230 566.234802,257.039062 549.406433,257.107056 
	C548.001099,257.112732 546.166809,257.286163 545.263550,258.148254 
	C538.908508,264.213928 532.745483,270.480682 526.301025,276.902466 
	C534.800354,287.594604 542.990234,297.897491 551.391174,308.465881 
	C550.231384,308.779297 549.927734,308.932800 549.623840,308.933197 
	C535.127930,308.952484 520.632019,308.960571 506.136078,308.965363 
	C497.137909,308.968353 492.246826,305.483246 490.126068,296.630981 
	C489.093628,292.321320 488.952393,287.742737 488.855621,283.276154 
	C488.669220,274.674103 488.801239,266.065094 488.801239,257.458801 
	C477.595764,257.458801 467.052399,257.458801 456.199402,257.458801 
	C456.199402,259.666016 456.199371,261.479034 456.199371,263.292053 
	C456.199371,291.114929 456.075470,318.938873 456.310150,346.759766 
	C456.353973,351.954254 454.319458,355.469238 450.315460,357.954376 
	C447.532471,359.681702 444.408661,361.166107 441.238617,361.891083 
	C436.597931,362.952393 431.779510,363.236511 426.722595,363.892609 
	C426.722595,381.477203 426.722595,399.044800 426.722595,417.056244 
	C441.046326,417.355804 454.422424,414.855988 466.061371,406.435211 
	C481.268768,395.432678 486.440399,379.602478 486.239502,361.111359 
	C496.254578,361.111359 505.877289,361.111359 516.500000,361.111298 
M382.259338,361.377411 
	C393.681030,362.790405 404.527191,360.950348 414.475372,355.102539 
	C423.801758,349.620300 431.212463,341.863312 431.687500,330.804413 
	C432.522491,311.364075 431.920837,291.862000 431.920837,272.190765 
	C407.446289,264.331482 383.139984,256.526245 358.639648,248.658691 
	C351.053558,264.215546 343.715302,279.264099 336.218445,294.637939 
	C338.794708,295.688660 340.918213,296.588379 343.066406,297.424774 
	C350.666046,300.383606 350.669250,300.375397 349.211914,308.968048 
	C347.508209,308.968048 345.716888,308.968048 343.925537,308.968048 
	C311.606262,308.968048 279.286987,308.968384 246.967728,308.967804 
	C238.913269,308.967651 234.504623,306.215179 232.117599,298.480438 
	C230.768173,294.107819 230.272095,289.357544 230.121414,284.753510 
	C229.823853,275.660950 230.033646,266.551788 230.033646,257.371277 
	C219.014664,257.371277 208.612549,257.371277 197.792221,257.371277 
	C197.792221,259.470306 197.792221,261.273560 197.792221,263.076813 
	C197.792206,282.734924 197.983841,302.395752 197.707672,322.049988 
	C197.578415,331.248352 200.327087,339.418884 204.810638,347.142670 
	C210.240845,356.497192 218.043823,361.306030 229.350723,361.223480 
	C269.497772,360.930511 309.648285,361.097473 349.797485,361.122070 
	C355.674683,361.125671 362.280426,362.709198 362.942749,354.757721 
	C369.319489,356.991089 375.361755,359.107300 382.259338,361.377411 
M225.364594,410.906738 
	C219.260727,412.022980 213.821350,414.200531 210.925308,420.242096 
	C207.702042,426.966309 210.680222,436.017517 216.810791,436.658783 
	C221.109680,437.108459 225.588364,435.839294 230.696594,435.256805 
	C236.946152,443.775513 260.430878,445.017883 271.395813,436.335205 
	C277.739899,442.771210 285.199951,442.809204 292.515411,436.368835 
	C296.392029,441.465668 301.872986,441.757965 307.383331,440.642487 
	C313.605652,439.382935 319.461090,438.817444 325.856628,440.652802 
	C333.060211,442.720001 339.863068,439.114532 342.857941,433.332001 
	C345.841187,427.571899 344.468628,421.400330 338.891418,415.721313 
	C333.184967,409.910706 326.313721,406.154755 318.449829,403.945831 
	C317.121155,407.018280 316.487183,410.337982 314.571686,412.545807 
	C309.915314,417.912811 307.041840,423.444305 309.779724,430.627716 
	C299.961395,431.549927 297.734283,429.633575 297.734680,420.470459 
	C297.734833,417.307220 297.785370,414.144012 297.788788,410.980774 
	C297.797180,403.236084 297.791534,395.491394 297.791534,387.748932 
	C295.137787,387.748932 293.053619,387.748932 290.739136,387.748932 
	C290.561127,389.330231 290.293579,390.621796 290.289337,391.914215 
	C290.252197,403.224274 290.033112,414.541443 290.375946,425.841095 
	C290.504883,430.090729 288.690491,431.223816 285.187622,430.942780 
	C281.656982,430.659485 276.905792,432.088135 276.756012,426.001648 
	C276.671936,422.584137 276.740875,419.162811 276.740875,415.863800 
	C273.508850,415.863800 271.300964,415.863800 268.986938,415.863800 
	C268.986938,419.620880 268.802277,422.955750 269.046204,426.259003 
	C269.236664,428.837830 268.322784,429.989929 265.912201,430.920135 
	C258.505432,433.778381 250.967743,433.356964 243.399963,432.253326 
	C238.916290,431.599426 236.432388,429.368866 236.741409,424.171387 
	C237.172852,416.914978 236.850143,409.613678 236.850143,402.096649 
	C233.835739,402.339600 231.564987,402.522614 229.653961,402.676666 
	C227.791382,405.378784 231.276840,409.800568 225.364594,410.906738 
M571.998962,195.495529 
	C564.166992,204.405289 563.266541,215.357315 569.635498,224.242355 
	C575.642761,232.622803 586.910034,235.906616 596.292114,231.755539 
	C604.819946,227.982376 609.552551,221.233231 609.867310,211.937485 
	C610.183350,202.602432 605.832458,195.486160 597.499329,191.379089 
	C588.539551,186.963165 580.077576,188.493942 571.998962,195.495529 
M396.313141,196.233994 
	C387.459900,187.974121 376.979401,186.669693 367.699341,192.672653 
	C359.380981,198.053513 355.551697,208.641403 358.777588,218.026642 
	C361.952179,227.262711 368.557312,232.570374 378.286011,233.334305 
	C387.372101,234.047791 394.593262,230.253006 399.080109,222.333969 
	C404.106842,213.462097 403.027618,204.807831 396.313141,196.233994 
M372.603943,387.990540 
	C371.762665,389.201538 370.265228,390.376038 370.195435,391.629974 
	C369.916168,396.648682 370.080109,401.692078 370.080109,407.447601 
	C362.876648,402.653198 356.586273,398.466492 350.273529,394.264923 
	C346.121552,401.894135 346.126740,401.885895 352.671478,406.021027 
	C357.972748,409.370483 363.259521,412.742859 368.543091,416.098938 
	C366.453369,422.892609 362.194977,427.413086 356.561401,429.468384 
	C350.827698,431.560120 350.421082,434.878571 351.591400,439.644775 
	C356.435394,441.467316 365.566772,441.567383 370.610138,439.853210 
	C379.298096,436.900360 383.983490,428.617859 379.730713,420.615509 
	C376.076477,413.739502 376.329712,407.152039 376.792389,400.112457 
	C376.988495,397.129272 376.795929,394.117310 377.055786,391.142517 
	C377.304657,388.293610 375.912598,387.685211 372.603943,387.990540 
M396.362701,405.500153 
	C396.362701,399.758392 396.362701,394.016632 396.362701,388.273560 
	C393.308167,388.273560 391.225586,388.273560 388.991974,388.273560 
	C388.991974,405.873871 388.991974,423.201019 388.991974,440.639557 
	C391.557739,440.639557 393.755615,440.639557 396.352905,440.639557 
	C396.352905,429.023682 396.352905,417.761902 396.362701,405.500153 
M352.181061,377.032379 
	C351.117950,381.577637 350.054810,386.122894 348.964569,390.784058 
	C364.572998,388.668701 364.572998,388.668701 363.491791,382.865356 
	C361.199158,382.865356 358.848724,383.178192 356.655365,382.727203 
	C355.630768,382.516541 354.909973,380.828369 354.051514,379.809845 
	C355.237946,378.929657 356.322296,377.818695 357.640259,377.235931 
	C358.890106,376.683289 360.384644,376.683990 361.771576,376.441345 
	C361.210663,375.194946 360.899353,373.152405 360.032867,372.880798 
	C358.578766,372.424988 356.628143,372.766815 355.159912,373.403534 
	C354.080750,373.871490 353.438385,375.346710 352.181061,377.032379 
M214.656631,396.982941 
	C216.325546,395.486084 218.384018,394.214386 219.450592,392.369324 
	C219.820404,391.729614 217.961044,388.812683 216.705063,388.473938 
	C215.164215,388.058411 212.505508,388.690125 211.533081,389.864899 
	C208.955124,392.979370 210.847870,395.265717 214.656631,396.982941 
M265.771790,449.064697 
	C262.990631,450.227509 261.142303,452.192261 262.852753,455.110809 
	C263.660767,456.489502 266.221771,458.040466 267.444763,457.678101 
	C269.037292,457.206299 271.421539,454.440002 271.089600,453.499847 
	C270.449738,451.687561 268.143158,450.463806 265.771790,449.064697 
M274.201752,451.938141 
	C274.947144,453.744141 275.316589,455.918976 276.584991,457.211853 
	C277.296997,457.937500 280.510468,457.697235 280.831726,457.035370 
	C281.749756,455.143951 282.813263,452.091461 281.924438,450.802246 
	C279.851624,447.795807 276.892975,448.443695 274.201752,451.938141 
M223.820007,395.740326 
	C226.178009,397.706360 228.742279,397.469574 230.105957,395.031616 
	C230.907974,393.597809 230.763123,390.526337 229.734680,389.486450 
	C228.693527,388.433655 225.674606,388.241180 224.171585,388.984863 
	C221.597488,390.258423 221.377426,392.793884 223.820007,395.740326 
z"/>
<path fill="#000000" opacity="1.000000" stroke="none" 
	d="
M933.921753,146.483215 
	C932.251038,139.197678 930.928955,131.378326 928.983093,123.717453 
	C925.590759,110.362328 918.883728,98.636940 910.385559,87.875885 
	C898.272705,72.537537 882.982849,61.346016 864.585144,55.129169 
	C854.959167,51.876400 844.581909,50.846851 834.301147,48.478893 
	C867.189270,48.144554 900.320190,48.144554 933.989563,48.144554 
	C933.989563,80.834496 933.989563,113.427620 933.921753,146.483215 
z"/>
<path fill="#000000" opacity="1.000000" stroke="none" 
	d="
M837.516602,569.921753 
	C846.321228,567.597717 855.851196,566.089294 864.805237,562.942322 
	C889.692566,554.195557 908.158142,537.581787 920.757874,514.516235 
	C928.058350,501.151642 932.817871,486.953888 933.521973,471.297546 
	C933.855469,503.855896 933.855469,536.653503 933.855469,569.989563 
	C901.832153,569.989563 869.905640,569.989563 837.516602,569.921753 
z"/>
<path fill="#000000" opacity="1.000000" stroke="none" 
	d="
M152.483307,48.078239 
	C146.106979,49.424774 139.188583,50.381104 132.444962,52.045509 
	C115.397865,56.252937 100.655762,64.717194 87.776878,76.660980 
	C73.300537,90.086235 63.300014,106.203903 57.980679,125.159660 
	C56.487556,130.480499 55.840599,136.038788 54.475075,141.715027 
	C54.144638,110.810730 54.144638,79.679573 54.144638,48.010441 
	C86.834778,48.010441 119.427795,48.010441 152.483307,48.078239 
z"/>
<path fill="#000000" opacity="1.000000" stroke="none" 
	d="
M54.078270,476.516602 
	C56.176441,484.210876 57.557129,492.601074 60.384300,500.471649 
	C65.010696,513.351135 72.091202,524.872803 81.451500,535.078491 
	C94.490089,549.294739 109.909409,559.608459 128.390274,565.014893 
	C135.239120,567.018372 142.435577,567.833557 149.707611,569.523071 
	C118.144104,569.855469 86.346497,569.855469 54.010445,569.855469 
	C54.010445,538.832214 54.010445,507.905670 54.078270,476.516602 
z"/>
<path fill="#FEFEFE" opacity="1.000000" stroke="none" 
	d="
M516.000000,361.111328 
	C505.877289,361.111359 496.254578,361.111359 486.239502,361.111359 
	C486.440399,379.602478 481.268768,395.432678 466.061371,406.435211 
	C454.422424,414.855988 441.046326,417.355804 426.722595,417.056244 
	C426.722595,399.044800 426.722595,381.477203 426.722595,363.892609 
	C431.779510,363.236511 436.597931,362.952393 441.238617,361.891083 
	C444.408661,361.166107 447.532471,359.681702 450.315460,357.954376 
	C454.319458,355.469238 456.353973,351.954254 456.310150,346.759766 
	C456.075470,318.938873 456.199371,291.114929 456.199371,263.292053 
	C456.199371,261.479034 456.199402,259.666016 456.199402,257.458801 
	C467.052399,257.458801 477.595764,257.458801 488.801239,257.458801 
	C488.801239,266.065094 488.669220,274.674103 488.855621,283.276154 
	C488.952393,287.742737 489.093628,292.321320 490.126068,296.630981 
	C492.246826,305.483246 497.137909,308.968353 506.136078,308.965363 
	C520.632019,308.960571 535.127930,308.952484 549.623840,308.933197 
	C549.927734,308.932800 550.231384,308.779297 551.391174,308.465881 
	C542.990234,297.897491 534.800354,287.594604 526.301025,276.902466 
	C532.745483,270.480682 538.908508,264.213928 545.263550,258.148254 
	C546.166809,257.286163 548.001099,257.112732 549.406433,257.107056 
	C566.234802,257.039062 583.064270,256.998230 599.891357,257.164398 
	C601.551636,257.180786 603.894897,258.157532 604.742432,259.457184 
	C612.743469,271.726532 620.492004,284.160614 628.294800,296.558868 
	C628.613770,297.065704 628.748535,297.688385 629.173218,298.783447 
	C615.804932,298.783447 602.905518,298.783447 589.111755,298.783447 
	C593.577881,304.359497 596.985962,308.712982 604.719543,308.216309 
	C617.330688,307.406372 630.032349,307.944000 642.694397,308.063049 
	C644.342163,308.078522 646.693237,308.451050 647.518372,309.555115 
	C660.060120,326.337799 672.401611,343.270142 685.481934,361.111298 
	C682.881714,361.111298 681.167969,361.111298 679.454224,361.111298 
	C655.627441,361.111298 631.777405,360.470825 607.982178,361.337738 
	C592.265808,361.910278 581.654358,354.969147 573.156067,342.981537 
	C571.452209,340.578033 569.914429,338.056732 567.759216,334.763306 
	C564.368835,342.748444 561.121216,349.927948 558.299866,357.271240 
	C557.156311,360.247620 555.652466,361.236938 552.489075,361.187195 
	C540.495300,360.998566 528.496765,361.111298 516.000000,361.111328 
z"/>
<path fill="#FFFFFF" opacity="1.000000" stroke="none" 
	d="
M381.831696,361.300476 
	C375.361755,359.107300 369.319489,356.991089 362.942749,354.757721 
	C362.280426,362.709198 355.674683,361.125671 349.797485,361.122070 
	C309.648285,361.097473 269.497772,360.930511 229.350723,361.223480 
	C218.043823,361.306030 210.240845,356.497192 204.810638,347.142670 
	C200.327087,339.418884 197.578415,331.248352 197.707672,322.049988 
	C197.983841,302.395752 197.792206,282.734924 197.792221,263.076813 
	C197.792221,261.273560 197.792221,259.470306 197.792221,257.371277 
	C208.612549,257.371277 219.014664,257.371277 230.033646,257.371277 
	C230.033646,266.551788 229.823853,275.660950 230.121414,284.753510 
	C230.272095,289.357544 230.768173,294.107819 232.117599,298.480438 
	C234.504623,306.215179 238.913269,308.967651 246.967728,308.967804 
	C279.286987,308.968384 311.606262,308.968048 343.925537,308.968048 
	C345.716888,308.968048 347.508209,308.968048 349.211914,308.968048 
	C350.669250,300.375397 350.666046,300.383606 343.066406,297.424774 
	C340.918213,296.588379 338.794708,295.688660 336.218445,294.637939 
	C343.715302,279.264099 351.053558,264.215546 358.639648,248.658691 
	C383.139984,256.526245 407.446289,264.331482 431.920837,272.190765 
	C431.920837,291.862000 432.522491,311.364075 431.687500,330.804413 
	C431.212463,341.863312 423.801758,349.620300 414.475372,355.102539 
	C404.527191,360.950348 393.681030,362.790405 381.831696,361.300476 
z"/>
<path fill="#FEFEFF" opacity="1.000000" stroke="none" 
	d="
M783.096008,339.136841 
	C766.347839,346.383759 749.631897,353.708435 732.778625,360.702148 
	C731.656433,361.167816 728.935608,359.544434 727.895020,358.178925 
	C712.064880,337.405365 696.395203,316.509491 680.679504,295.648712 
	C668.371033,279.310669 656.050720,262.981598 644.030334,247.039276 
	C650.536194,240.107910 655.738525,230.845032 663.529480,227.346161 
	C670.832397,224.066483 674.789062,218.368958 680.449402,214.081940 
	C681.796326,213.061798 682.941101,210.166718 682.487061,208.635742 
	C679.374878,198.141846 682.107422,189.948502 691.121887,183.773987 
	C693.676392,182.024277 696.134277,180.133560 698.853088,178.952301 
	C699.800659,181.263748 700.427856,182.985443 701.278320,184.588760 
	C712.249573,205.272324 723.287537,225.920609 734.239563,246.614334 
	C750.553833,277.439911 766.813232,308.294586 783.096008,339.136841 
z"/>
<path fill="#E5E6E8" opacity="1.000000" stroke="none" 
	d="
M783.410583,339.015442 
	C766.813232,308.294586 750.553833,277.439911 734.239563,246.614334 
	C723.287537,225.920609 712.249573,205.272324 701.278320,184.588760 
	C700.427856,182.985443 699.800659,181.263748 699.070679,179.223389 
	C707.082947,185.549957 715.571411,191.764130 723.001343,199.056717 
	C736.416138,212.223480 749.084656,226.148071 762.355774,239.466309 
	C764.579651,241.698105 768.157288,243.377426 771.300537,243.766052 
	C790.264343,246.110901 809.290039,247.951782 828.271118,250.166840 
	C829.603394,250.322311 831.512695,251.928452 831.848267,253.203583 
	C834.256531,262.354553 836.432068,271.572144 838.392639,280.829742 
	C838.692383,282.245056 837.971985,284.439331 836.932251,285.491516 
	C819.270813,303.365692 801.484192,321.116241 783.410583,339.015442 
z"/>
<path fill="#FBFAFD" opacity="1.000000" stroke="none" 
	d="
M225.766129,410.796936 
	C231.276840,409.800568 227.791382,405.378784 229.653961,402.676666 
	C231.564987,402.522614 233.835739,402.339600 236.850143,402.096649 
	C236.850143,409.613678 237.172852,416.914978 236.741409,424.171387 
	C236.432388,429.368866 238.916290,431.599426 243.399963,432.253326 
	C250.967743,433.356964 258.505432,433.778381 265.912201,430.920135 
	C268.322784,429.989929 269.236664,428.837830 269.046204,426.259003 
	C268.802277,422.955750 268.986938,419.620880 268.986938,415.863800 
	C271.300964,415.863800 273.508850,415.863800 276.740875,415.863800 
	C276.740875,419.162811 276.671936,422.584137 276.756012,426.001648 
	C276.905792,432.088135 281.656982,430.659485 285.187622,430.942780 
	C288.690491,431.223816 290.504883,430.090729 290.375946,425.841095 
	C290.033112,414.541443 290.252197,403.224274 290.289337,391.914215 
	C290.293579,390.621796 290.561127,389.330231 290.739136,387.748932 
	C293.053619,387.748932 295.137787,387.748932 297.791534,387.748932 
	C297.791534,395.491394 297.797180,403.236084 297.788788,410.980774 
	C297.785370,414.144012 297.734833,417.307220 297.734680,420.470459 
	C297.734283,429.633575 299.961395,431.549927 309.779724,430.627716 
	C307.041840,423.444305 309.915314,417.912811 314.571686,412.545807 
	C316.487183,410.337982 317.121155,407.018280 318.449829,403.945831 
	C326.313721,406.154755 333.184967,409.910706 338.891418,415.721313 
	C344.468628,421.400330 345.841187,427.571899 342.857941,433.332001 
	C339.863068,439.114532 333.060211,442.720001 325.856628,440.652802 
	C319.461090,438.817444 313.605652,439.382935 307.383331,440.642487 
	C301.872986,441.757965 296.392029,441.465668 292.515411,436.368835 
	C285.199951,442.809204 277.739899,442.771210 271.395813,436.335205 
	C260.430878,445.017883 236.946152,443.775513 230.696594,435.256805 
	C225.588364,435.839294 221.109680,437.108459 216.810791,436.658783 
	C210.680222,436.017517 207.702042,426.966309 210.925308,420.242096 
	C213.821350,414.200531 219.260727,412.022980 225.766129,410.796936 
M321.782990,429.252380 
	C323.041229,427.813263 325.369781,426.343323 325.329376,424.941681 
	C325.251282,422.233826 324.426239,419.072144 322.751465,417.066956 
	C321.773499,415.895996 317.517365,415.643066 316.568329,416.670166 
	C314.909912,418.464966 313.774445,421.661224 314.037476,424.095428 
	C314.420380,427.639618 317.343170,429.545746 321.782990,429.252380 
M220.007996,419.333496 
	C219.289200,419.751862 218.396103,420.021790 217.887512,420.619141 
	C216.786758,421.911804 214.877396,423.636078 215.155701,424.696472 
	C215.495758,425.992126 217.644852,427.443726 219.178589,427.663696 
	C222.345673,428.117920 225.623428,427.800507 228.793091,427.800507 
	C228.793091,423.627258 228.793091,420.413666 228.793091,416.679596 
	C225.775879,417.557587 223.247849,418.293213 220.007996,419.333496 
M335.141449,430.992645 
	C336.372955,430.717896 337.604431,430.443146 339.907715,429.929260 
	C336.631378,426.188202 333.899261,423.068542 330.839600,419.574860 
	C329.779083,423.978302 328.954651,427.401611 328.085419,431.010925 
	C330.009155,431.010925 332.157166,431.010925 335.141449,430.992645 
z"/>
<path fill="#FDFDFE" opacity="1.000000" stroke="none" 
	d="
M572.255676,195.243134 
	C580.077576,188.493942 588.539551,186.963165 597.499329,191.379089 
	C605.832458,195.486160 610.183350,202.602432 609.867310,211.937485 
	C609.552551,221.233231 604.819946,227.982376 596.292114,231.755539 
	C586.910034,235.906616 575.642761,232.622803 569.635498,224.242355 
	C563.266541,215.357315 564.166992,204.405289 572.255676,195.243134 
z"/>
<path fill="#FEFDFE" opacity="1.000000" stroke="none" 
	d="
M396.551270,196.506592 
	C403.027618,204.807831 404.106842,213.462097 399.080109,222.333969 
	C394.593262,230.253006 387.372101,234.047791 378.286011,233.334305 
	C368.557312,232.570374 361.952179,227.262711 358.777588,218.026642 
	C355.551697,208.641403 359.380981,198.053513 367.699341,192.672653 
	C376.979401,186.669693 387.459900,187.974121 396.551270,196.506592 
z"/>
<path fill="#FBF9FC" opacity="1.000000" stroke="none" 
	d="
M373.065918,387.988647 
	C375.912598,387.685211 377.304657,388.293610 377.055786,391.142517 
	C376.795929,394.117310 376.988495,397.129272 376.792389,400.112457 
	C376.329712,407.152039 376.076477,413.739502 379.730713,420.615509 
	C383.983490,428.617859 379.298096,436.900360 370.610138,439.853210 
	C365.566772,441.567383 356.435394,441.467316 351.587311,439.642700 
	C350.421082,434.878571 350.827698,431.560120 356.561401,429.468384 
	C362.194977,427.413086 366.453369,422.892609 368.543091,416.098938 
	C363.259521,412.742859 357.972748,409.370483 352.671478,406.021027 
	C346.126740,401.885895 346.121552,401.894135 350.273529,394.264923 
	C356.586273,398.466492 362.876648,402.653198 370.080109,407.447601 
	C370.080109,401.692078 369.916168,396.648682 370.195435,391.629974 
	C370.265228,390.376038 371.762665,389.201538 373.065918,387.988647 
M363.395721,430.175629 
	C365.386841,430.453033 367.464233,431.216797 369.346954,430.882965 
	C371.627777,430.478485 375.246979,429.510651 375.581757,428.130402 
	C376.092926,426.023224 374.285431,423.353577 373.410797,420.770386 
	C369.681549,424.224487 366.779205,426.912659 363.395721,430.175629 
z"/>
<path fill="#FFFFFF" opacity="1.000000" stroke="none" 
	d="
M396.357788,406.000153 
	C396.352905,417.761902 396.352905,429.023682 396.352905,440.639557 
	C393.755615,440.639557 391.557739,440.639557 388.991974,440.639557 
	C388.991974,423.201019 388.991974,405.873871 388.991974,388.273560 
	C391.225586,388.273560 393.308167,388.273560 396.362701,388.273560 
	C396.362701,394.016632 396.362701,399.758392 396.357788,406.000153 
z"/>
<path fill="#FAF8FC" opacity="1.000000" stroke="none" 
	d="
M352.391235,376.702728 
	C353.438385,375.346710 354.080750,373.871490 355.159912,373.403534 
	C356.628143,372.766815 358.578766,372.424988 360.032867,372.880798 
	C360.899353,373.152405 361.210663,375.194946 361.771576,376.441345 
	C360.384644,376.683990 358.890106,376.683289 357.640259,377.235931 
	C356.322296,377.818695 355.237946,378.929657 354.051514,379.809845 
	C354.909973,380.828369 355.630768,382.516541 356.655365,382.727203 
	C358.848724,383.178192 361.199158,382.865356 363.491791,382.865356 
	C364.572998,388.668701 364.572998,388.668701 348.964569,390.784058 
	C350.054810,386.122894 351.117950,381.577637 352.391235,376.702728 
z"/>
<path fill="#F9F7FB" opacity="1.000000" stroke="none" 
	d="
M214.289917,396.903931 
	C210.847870,395.265717 208.955124,392.979370 211.533081,389.864899 
	C212.505508,388.690125 215.164215,388.058411 216.705063,388.473938 
	C217.961044,388.812683 219.820404,391.729614 219.450592,392.369324 
	C218.384018,394.214386 216.325546,395.486084 214.289917,396.903931 
z"/>
<path fill="#F9F6FB" opacity="1.000000" stroke="none" 
	d="
M266.149719,449.030365 
	C268.143158,450.463806 270.449738,451.687561 271.089600,453.499847 
	C271.421539,454.440002 269.037292,457.206299 267.444763,457.678101 
	C266.221771,458.040466 263.660767,456.489502 262.852753,455.110809 
	C261.142303,452.192261 262.990631,450.227509 266.149719,449.030365 
z"/>
<path fill="#FAF8FC" opacity="1.000000" stroke="none" 
	d="
M274.388245,451.590607 
	C276.892975,448.443695 279.851624,447.795807 281.924438,450.802246 
	C282.813263,452.091461 281.749756,455.143951 280.831726,457.035370 
	C280.510468,457.697235 277.296997,457.937500 276.584991,457.211853 
	C275.316589,455.918976 274.947144,453.744141 274.388245,451.590607 
z"/>
<path fill="#FBF9FC" opacity="1.000000" stroke="none" 
	d="
M223.542847,395.470123 
	C221.377426,392.793884 221.597488,390.258423 224.171585,388.984863 
	C225.674606,388.241180 228.693527,388.433655 229.734680,389.486450 
	C230.763123,390.526337 230.907974,393.597809 230.105957,395.031616 
	C228.742279,397.469574 226.178009,397.706360 223.542847,395.470123 
z"/>
<path fill="#7C40AA" opacity="1.000000" stroke="none" 
	d="
M321.450073,429.405304 
	C317.343170,429.545746 314.420380,427.639618 314.037476,424.095428 
	C313.774445,421.661224 314.909912,418.464966 316.568329,416.670166 
	C317.517365,415.643066 321.773499,415.895996 322.751465,417.066956 
	C324.426239,419.072144 325.251282,422.233826 325.329376,424.941681 
	C325.369781,426.343323 323.041229,427.813263 321.450073,429.405304 
z"/>
<path fill="#7E42AB" opacity="1.000000" stroke="none" 
	d="
M220.363907,419.181152 
	C223.247849,418.293213 225.775879,417.557587 228.793091,416.679596 
	C228.793091,420.413666 228.793091,423.627258 228.793091,427.800507 
	C225.623428,427.800507 222.345673,428.117920 219.178589,427.663696 
	C217.644852,427.443726 215.495758,425.992126 215.155701,424.696472 
	C214.877396,423.636078 216.786758,421.911804 217.887512,420.619141 
	C218.396103,420.021790 219.289200,419.751862 220.363907,419.181152 
z"/>
<path fill="#8045AC" opacity="1.000000" stroke="none" 
	d="
M334.723328,431.001770 
	C332.157166,431.010925 330.009155,431.010925 328.085419,431.010925 
	C328.954651,427.401611 329.779083,423.978302 330.839600,419.574860 
	C333.899261,423.068542 336.631378,426.188202 339.907715,429.929260 
	C337.604431,430.443146 336.372955,430.717896 334.723328,431.001770 
z"/>
<path fill="#7F44AC" opacity="1.000000" stroke="none" 
	d="
M363.636292,429.888245 
	C366.779205,426.912659 369.681549,424.224487 373.410797,420.770386 
	C374.285431,423.353577 376.092926,426.023224 375.581757,428.130402 
	C375.246979,429.510651 371.627777,430.478485 369.346954,430.882965 
	C367.464233,431.216797 365.386841,430.453033 363.636292,429.888245 
z"/>
</svg>